<svg xmlns="http://www.w3.org/2000/svg" style="transform-origin: 50% 50%;" viewBox="500 30 1550 1520">
	
	<g fill="rgb(70,70,70)">
		<!-- bottom triangle -->
		<polygon points="550,1550 2050,1550 1650,1330"/>

		<!-- top left triangle -->
		<polygon points="500,1300 1250,30 1250,450"/>
	</g>

	<g fill="rgb(80,80,80)">
		<!-- right triangle -->
		<polygon points="2050,1550 1650,1330 1250,450 1250,30"/>

		<!-- letter -->
		<path d="M979 1129 l3 -170 -18 -20 -17 -19 34 0 34 1 38 52 c21 29 55 72 75 96 l38 43 67 -87 c37 -48 67 -91 67 -96 l0 -9 35 0 36 0 -11 20 -11 20 3 170 3 170 -30 0 -30 0 3 -140 4 -140 -10 0 -10 0 -57 75 c-32 41 -61 75 -65 75 -4 0 -31 -31 -61 -70 l-54 -69 -14 -1 -14 0 5 135 5 135 -26 0 -26 0 4 -171z"/>
	</g>
</svg>